# xmcd CD database file
#
# Track frame offsets:
#	182
#	26117
#	46445
#	73247
#	94485
#	116357
#	140905
#	163065
#	179242
#	201692
#	216517
#
# Disc length: 3232 seconds
#
# Revision: 0
# Processed by: cddbd v1.5PL3 Copyright (c) Steve Scherf et al.
# Submitted via: CDex 1.50beta10
#
DISCID=c10c9e0b
DTITLE=Ricoson - Son de altura
DYEAR=1997
DGENRE=Salsa
TTITLE0=Rico-cha
TTITLE1=Son de altura
TTITLE2=Perdida
TTITLE3=Macusa
TTITLE4=Vuelvo a la vida
TTITLE5=Dueña de la luna
TTITLE6=Hasta siempre comandante
TTITLE7=Tatalibaba
TTITLE8=Lloraras
TTITLE9=Son de la loma
TTITLE10=Llegaste a mi
EXTD=YEAR: 1997
EXTT0=
EXTT1=
EXTT2=
EXTT3=
EXTT4=
EXTT5=
EXTT6=
EXTT7=
EXTT8=
EXTT9=
EXTT10=
PLAYORDER=
